<?xml version="1.0" encoding="utf-8"?>
<!-- Generator: Adobe Adobe Illustrator 24.2.0, SVG Export Plug-In . SVG Version: 6.00 Build 0)  -->
<svg version="1.1" xmlns="http://www.w3.org/2000/svg" xmlns:xlink="http://www.w3.org/1999/xlink" x="0px" y="0px" width="1000px"
	 height="1000px" viewBox="0 0 1000 1000" style="enable-background:new 0 0 1000 1000;" xml:space="preserve">
<style type="text/css">
	.st0{fill:url(#SVGID_1_);}
	.st1{fill:url(#SVGID_2_);}
	.st2{fill:#365566;}
	.st3{fill:#FFFFFF;}
	.st4{fill:#DAEDF7;}
	.st5{fill:#2A4956;}
	.st6{fill:none;stroke:#000000;stroke-width:11;stroke-linecap:round;stroke-linejoin:round;stroke-miterlimit:10;}
</style>
<g id="Color">
	<linearGradient id="SVGID_1_" gradientUnits="userSpaceOnUse" x1="512.1594" y1="122.1171" x2="515.9046" y2="886.1456">
		<stop  offset="0.0285" style="stop-color:#B8EAB3"/>
		<stop  offset="0.0788" style="stop-color:#B1E8B5"/>
		<stop  offset="0.1542" style="stop-color:#9CE3BA"/>
		<stop  offset="0.2454" style="stop-color:#7BDBC3"/>
		<stop  offset="0.3489" style="stop-color:#4CD0CF"/>
		<stop  offset="0.4614" style="stop-color:#11C3DE"/>
		<stop  offset="0.4878" style="stop-color:#02BFE2"/>
	</linearGradient>
	<path class="st0" d="M845.04,506.68c0,53.03-12.47,103.16-34.65,147.59C756.14,763,643.81,837.68,514.04,837.68
		c-128.31,0-239.57-73.01-294.5-179.75c-23.33-45.33-36.5-96.76-36.5-151.25c0-182.81,148.19-331,331-331
		S845.04,323.87,845.04,506.68z"/>
	<linearGradient id="SVGID_2_" gradientUnits="userSpaceOnUse" x1="319.0445" y1="416.0261" x2="719.0445" y2="416.0261">
		<stop  offset="0" style="stop-color:#FFAD1D"/>
		<stop  offset="1" style="stop-color:#FF486B"/>
	</linearGradient>
	<path class="st1" d="M719.04,468.68c0,32.78-7.89,63.73-21.87,91.03c-26.51-29.48-45.97-58.38-60.13-83.03l-30-2l-25.73-23
		l-30.27,12l-47,1c-5-4.33-10-8.67-15-13c-9.22,3.22-19.59,6.34-31,9c-12.66,2.95-24.43,4.82-35,6
		c-18.96,28.24-45.09,62.16-80.21,96.69c-15.18-28.18-23.79-60.43-23.79-94.69c0-110.46,89.54-200,200-200
		S719.04,358.22,719.04,468.68z"/>
	<path class="st2" d="M809.6,652.49C755.35,761.22,643.02,835.9,513.25,835.9c-128.31,0-239.57-73.01-294.5-179.75
		c14.45-8.44,30.34-18.52,47.11-30.47h0.01c20.2-14.39,41.66-31.51,63.38-51.78c4.04-3.77,7.97-7.54,11.79-11.31
		c35.12-34.53,61.25-68.45,80.21-96.69c10.57-1.18,22.34-3.05,35-6c11.41-2.66,21.78-5.78,31-9c5,4.33,10,8.67,15,13l47-1l30.27-12
		l25.73,23l30,2c14.16,24.65,33.62,53.55,60.13,83.03c0.29,0.32,0.58,0.65,0.87,0.97c21.78,24.09,43.97,43.77,64.79,59.73v0.01
		C778.53,633.07,795.07,643.88,809.6,652.49z"/>
	<path class="st3" d="M761.04,619.42l-58.79-5.74l12,35l-91-58l5,31l-64-36l-61,25l4-42l-80.58,56.78l-22.42-32.78l-138.38,32.78
		c20.2-14.39,41.66-31.51,63.38-51.78c41.13-38.38,70.97-76.68,92-108c10.57-1.18,22.34-3.05,35-6c11.41-2.66,21.78-5.78,31-9
		c5,4.33,10,8.67,15,13l47-1l30.27-12l25.73,23l30,2c14.32,24.92,34.05,54.19,61,84c21.78,24.09,43.97,43.77,64.79,59.73V619.42z"/>
	<path class="st3" d="M696.25,559.68c0,0,15.17-48.5,20.73-53.5c5.56-5,30.56-2,35.56,21c16-19,42-18,42-18s-5.72-60.63,45.14-40.31
		c4.86,54.31,0.37,95.39,0.37,95.39s-37.84-2.63-52.18,19.64c-27.33-4.72-50.33,14.28-50.33,14.28L696.25,559.68z"/>
	<path class="st3" d="M324.33,514.54l-29.07,5.26c0,0-2.71-42.62-37.71-20.62c0,0-11-70-71-24l4.41,97.43
		c0,0,39.04-30.16,52.81,10.7c0,0,30.88-18.08,53.83,17.4l45.24-37.34L324.33,514.54z"/>
	<path class="st4" d="M737.54,598.18c0,0,20.67-28.56,50.33-14.28c0,0,14.69-23.57,52.18-19.64l-29.66,90.01L737.54,598.18z"/>
	<path class="st4" d="M219.54,657.93l78.05-57.22c0,0-23.6-39.26-53.83-17.4c0,0-17.4-41.28-52.81-10.7L219.54,657.93z"/>
</g>
<g id="Shadows">
	<path class="st5" d="M289.87,749.16c0,0,44.68,2.03,66.68-20.97s112.41-81.98,123.71,10.51c0,0,2.27,67.6-64.72,82.55
		C415.53,821.24,315.19,775.13,289.87,749.16z"/>
	<path class="st5" d="M504.04,609.25c0,0-19.5,44.93,30.5,105.93s-49.39,120.7-68.69,117.35c0,0,161.03,19.97,264.36-75.19
		s73.07-108.66,73.07-108.66l-47.8-29.8l-49.86-4.87l6.81,29.39l-83.99-49.41l-0.91,29.19l-60.31-35.82L504.04,609.25z"/>
	<path class="st4" d="M404.25,592.68l-11.65-15.45c-3.54-4.69-9.87-6.27-15.19-3.79l-95.87,44.74L404.25,592.68z"/>
	<polygon class="st4" points="505.04,464.68 443.83,526.68 434.87,544.68 422.7,619.18 432.3,623.2 508.25,569.68 549.35,526.68 
		566.62,502.04 565.6,485.51 552.04,463.68 	"/>
	<polygon class="st4" points="711.54,647.18 705.63,614.01 615.77,506.68 593.48,553.85 595.65,562.37 609.94,572.34 623.42,620.73 
		633.17,590.12 651.54,604.18 	"/>
</g>
<g id="Details">
	<circle class="st3" cx="236.04" cy="427.68" r="4.5"/>
	<circle class="st3" cx="263.04" cy="441.68" r="2.5"/>
	<circle class="st3" cx="289.54" cy="334.18" r="5"/>
	<circle class="st3" cx="338.04" cy="260.68" r="5.5"/>
	<circle class="st3" cx="348.54" cy="283.18" r="2"/>
	<circle class="st3" cx="430.54" cy="245.18" r="4"/>
	<circle class="st3" cx="565.54" cy="222.18" r="5"/>
	<circle class="st3" cx="600.04" cy="245.68" r="2.5"/>
	<circle class="st3" cx="703.54" cy="322.18" r="6"/>
	<circle class="st3" cx="723.54" cy="308.18" r="4"/>
	<circle class="st3" cx="770.54" cy="426.18" r="4"/>
	<circle class="st3" cx="612.54" cy="417.18" r="4"/>
	<circle class="st3" cx="647.54" cy="411.18" r="4"/>
	<circle class="st3" cx="636.54" cy="439.18" r="4"/>
	<circle class="st3" cx="465.54" cy="311.18" r="8"/>
	<circle class="st3" cx="480.54" cy="326.18" r="4"/>
	<circle class="st3" cx="510.54" cy="397.18" r="4"/>
	<circle class="st3" cx="576.54" cy="336.18" r="6"/>
	<circle class="st3" cx="381.54" cy="414.18" r="8"/>
	<circle class="st3" cx="366.54" cy="389.18" r="5"/>
	<circle class="st3" cx="496.54" cy="497.18" r="7"/>
	<circle class="st3" cx="505.54" cy="511.18" r="4"/>
	<circle class="st3" cx="632.54" cy="553.18" r="4"/>
	<circle class="st3" cx="646.54" cy="577.18" r="4"/>
	<circle class="st3" cx="375.54" cy="583.18" r="4"/>
	<circle class="st3" cx="222.54" cy="594.18" r="4"/>
	<circle class="st3" cx="799.54" cy="615.18" r="4"/>
</g>
<g id="Outline">
	<path class="st6" d="M845.04,506.68c0,53.03-12.47,103.16-34.65,147.59C756.14,763,643.81,837.68,514.04,837.68
		c-128.31,0-239.57-73.01-294.5-179.75c-23.33-45.33-36.5-96.76-36.5-151.25c0-182.81,148.19-331,331-331
		S845.04,323.87,845.04,506.68z"/>
	<path class="st6" d="M809.6,652.49C755.35,761.22,643.02,835.9,513.25,835.9c-128.31,0-239.57-73.01-294.5-179.75
		c14.45-8.44,30.34-18.52,47.11-30.47h0.01c20.2-14.39,41.66-31.51,63.38-51.78c4.04-3.77,7.97-7.54,11.79-11.31
		c35.12-34.53,61.25-68.45,80.21-96.69c10.57-1.18,22.34-3.05,35-6c11.41-2.66,21.78-5.78,31-9c5,4.33,10,8.67,15,13l47-1l30.27-12
		l25.73,23l30,2c14.16,24.65,33.62,53.55,60.13,83.03c0.29,0.32,0.58,0.65,0.87,0.97c21.78,24.09,43.97,43.77,64.79,59.73v0.01
		C778.53,633.07,795.07,643.88,809.6,652.49z"/>
	<path class="st6" d="M761.04,619.42l-58.79-5.74l12,35l-91-58l5,31l-64-36l-61,25l4-42l-80.58,56.78l-22.42-32.78l-138.38,32.78
		c20.2-14.39,41.66-31.51,63.38-51.78c41.13-38.38,70.97-76.68,92-108c10.57-1.18,22.34-3.05,35-6c11.41-2.66,21.78-5.78,31-9
		c5,4.33,10,8.67,15,13l47-1l30.27-12l25.73,23l30,2c14.32,24.92,34.05,54.19,61,84c21.78,24.09,43.97,43.77,64.79,59.73V619.42z"/>
	<path class="st6" d="M719.04,467.68c0,32.78-7.89,63.73-21.87,91.03c-26.51-29.48-45.97-58.38-60.13-83.03l-30-2l-25.73-23
		l-30.27,12l-47,1c-5-4.33-10-8.67-15-13c-9.22,3.22-19.59,6.34-31,9c-12.66,2.95-24.43,4.82-35,6
		c-18.96,28.24-45.09,62.16-80.21,96.69c-15.18-28.18-23.79-60.43-23.79-94.69c0-110.46,89.54-200,200-200
		S719.04,357.22,719.04,467.68z"/>
	<path class="st6" d="M184.04,479.68c8.04-16.16,25.97-24.77,43-21c18.33,4.06,31.38,21.55,30,41c6.78-6.42,16.79-8,25-4
		c8.79,4.29,13.76,14.12,12,24c2.99-1.92,8.09-4.68,15-6c6.46-1.24,11.88-0.73,15.28-0.14"/>
	<path class="st6" d="M190.96,578.94c4.29-11.1,15.36-18.12,27.09-17.26c11.35,0.84,21.03,8.89,24,20c0.82-0.45,20.97-11.15,39,0
		c10.68,6.6,14.47,17.07,15.54,20.43"/>
	<path class="st6" d="M736.07,598.92c1.93-3,8.7-12.71,21.97-17.23c14.47-4.94,26.74-0.33,29.83,0.94
		c2.7-3.38,11.25-13.2,26.17-16.94c11.62-2.91,21.28-0.67,25.64,0.64"/>
	<path class="st6" d="M715.24,506.68c2.21-0.72,11.07-3.3,20.8,1c11.71,5.18,15.44,16.25,16,18c1.69-2.92,8.37-13.64,22-18
		c8.44-2.7,15.77-1.76,19.52-1c-2.5-19.7,7.16-36.97,21.48-42c10.98-3.85,21.39,0.65,24.64,2.22"/>
	<g>
		<path d="M507.93,467.57c-3.58,3.44-58.08,54.68-59.62,56.36c-1.99,2.07-3.81,4.31-5.44,6.7c-4.08,5.95-6.95,12.84-8.29,19.98
			c-0.54,2.92-1.89,10.47-2.43,13.46c0,0-3.24,17.98-3.24,17.98c-0.12,0.69-0.79,1.15-1.48,1.03c-0.67-0.12-1.11-0.74-1.04-1.4
			l2.19-18.13c0.76-5.36,1.34-13.08,2.46-18.3c2-9.33,6.4-18.22,12.64-25.49c1.54-1.87,53.07-56.3,56.47-59.95
			C505.45,454.57,513.2,462.18,507.93,467.57L507.93,467.57z"/>
	</g>
	<g>
		<path d="M449.41,522.21l-39.83,22.34c-1.11,0.61-2.12-0.99-1.06-1.72c0,0,37.93-25.43,37.93-25.43
			C449.72,515.33,452.74,520.2,449.41,522.21L449.41,522.21z"/>
	</g>
	<g>
		<path d="M553.53,459.59l14.32,23.05c5.49,8.47,3.93,19.32-3.06,26.34c0,0-2.2,2.58-2.2,2.58l-35.28,41.24
			c-0.35,0.41-0.97,0.46-1.39,0.11c-0.39-0.33-0.45-0.91-0.16-1.32l31.73-44.03l1.98-2.75c4.3-5.01,5.31-11.9,1.15-17.24
			c0,0-16.19-21.78-16.19-21.78C540.16,459.54,549.26,453.29,553.53,459.59L553.53,459.59z"/>
	</g>
	<g>
		<path d="M588.17,449.76c5.64,5.81,28.41,29.38,33.56,34.7c3.85,3.63,4.82,9.89,2.21,14.46c-0.66,1.28-2.56,4.94-3.25,6.27
			c-4.47,8.63-19.24,37.15-23.83,46c-2.31,3.91-1.26,9.29,2.45,12c1.27,0.96,4.43,2.98,5.76,3.91c0,0,7.81,5.26,7.81,5.26
			c1.63,1.12,0.08,3.65-1.68,2.64c-2.74-1.63-9.48-5.7-12.11-7.27c-0.35-0.23-1.18-0.7-1.52-0.91c-5.07-3.01-7.64-9.46-6.03-15.17
			c0.43-1.72,2.19-5.2,2.9-6.87c2.88-6.36,16.88-37.23,19.45-42.89c0,0,1.94-4.29,1.94-4.29l0.97-2.14c0.2-0.43,0.23-0.53,0.29-0.73
			c0.41-1.28,0.1-2.75-0.81-3.72c-0.9-0.91-7.22-6.71-8.26-7.71c0,0-27.57-25.68-27.57-25.68c-2.22-2.07-2.35-5.55-0.28-7.78
			C582.32,447.53,585.99,447.49,588.17,449.76L588.17,449.76z"/>
	</g>
	<g>
		<path d="M618.17,504.77l16.32,24.55c0.38,0.57-0.43,1.23-0.9,0.72c0,0-20.23-21.45-20.23-21.45
			C610.45,505.28,615.59,501.18,618.17,504.77L618.17,504.77z"/>
	</g>
</g>
</svg>
