<?xml version="1.0" encoding="UTF-8"?>
<svg xmlns="http://www.w3.org/2000/svg" xmlns:xlink="http://www.w3.org/1999/xlink" viewBox="0 0 300 300">
  <defs>
    <style>
      .cls-1 {
        fill: #3a3a38;
      }

      .cls-2 {
        fill: url(#radial-gradient);
      }
    </style>
    <radialGradient id="radial-gradient" cx="152.73" cy="150" fx="152.73" fy="150" r="100.89" gradientTransform="matrix(1, 0, 0, 1, 0, 0)" gradientUnits="userSpaceOnUse">
      <stop offset=".19" stop-color="#faee0f"/>
      <stop offset=".39" stop-color="#f7eb0e"/>
      <stop offset=".52" stop-color="#eee20e"/>
      <stop offset=".64" stop-color="#dfd40d"/>
      <stop offset=".74" stop-color="#c9bf0c"/>
      <stop offset=".84" stop-color="#ada40a"/>
      <stop offset=".93" stop-color="#8b8408"/>
      <stop offset="1" stop-color="#6e6807"/>
    </radialGradient>
  </defs>
  <g id="Placeholder"/>
  <g id="Layer_1" data-name="Layer 1"/>
  <g id="Layer_3" data-name="Layer 3">
    <circle class="cls-2" cx="152.73" cy="150" r="92.97"/>
  </g>
  <g id="Layer_2" data-name="Layer 2">
    <g>
      <path class="cls-1" d="M176.44,198.56l-5.92-11.31-5.92-11.31-5.92-11.31c-1.74,1.11-3.76,1.75-5.91,1.75s-4.18-.64-5.92-1.75l-5.92,11.31h.02l-5.96,11.25c2.21,1.43,4.59,2.59,7.08,3.46-2.48-.86-4.85-2-7.06-3.41l-5.92,11.31c3.18,2.03,6.61,3.66,10.2,4.83-3.6-1.17-7.03-2.79-10.22-4.81l-5.88,11.3h-.01l-5.92,11.3c10.44,6.66,22.56,10.47,35.5,10.47s25.06-3.81,35.5-10.47l-5.92-11.31-5.92-11.31Z"/>
      <path class="cls-1" d="M137.86,150.03c0-2.37,.64-4.59,1.74-6.5,1.14-1.97,2.79-3.62,4.76-4.76l-6.51-11.27c-1.97,1.14-3.78,2.54-5.39,4.14,1.6-1.6,3.41-3,5.39-4.14l-6.51-11.27h0l-6.51-11.27-6.51-11.27-6.51-11.27c-11.85,6.85-21.72,16.73-28.57,28.57-6.64,11.48-10.43,24.81-10.43,39.03h65.03Z"/>
      <path class="cls-1" d="M221.31,111.04c-6.8-11.74-16.6-21.53-28.36-28.32l-6.46,11.17-6.46,11.17h.02l-6.47,11.14c2.94,1.71,5.63,3.79,8.01,6.17-2.38-2.38-5.08-4.45-8.01-6.14l-6.46,11.17-6.46,11.17c1.96,1.13,3.59,2.76,4.73,4.72,1.1,1.9,1.73,4.1,1.73,6.45h64.55c0-14.1-3.77-27.31-10.35-38.68Z"/>
      <path class="cls-1" d="M141.82,151.34c0,1.99,.53,3.85,1.46,5.46,.96,1.66,2.34,3.04,4,4l2.41-4.18-2.38,4.2c1.6,.91,3.46,1.43,5.43,1.42v.02c1.99,0,3.85-.53,5.46-1.46,1.66-.96,3.04-2.34,4-4,.93-1.61,1.46-3.47,1.46-5.46s-.53-3.85-1.46-5.46c-.96-1.66-2.34-3.04-4-4-1.61-.93-3.47-1.46-5.46-1.46s-3.85,.53-5.46,1.46c-1.66,.96-3.04,2.34-4,4-.93,1.61-1.46,3.47-1.46,5.46Z"/>
    </g>
  </g>
</svg>